# xmcd
#
# Track frame offsets: 
#        150
#        25987
#        44800
#        61507
#        81862
#        110912
#        125162
#        136812
#
# Disc length: 2837 seconds
#
# Revision: 0
# Processed by: cddbd v1.5.1PL0 Copyright (c) Steve Scherf et al.
# Submitted via: ExactAudioCopy v0.95a5
#
DISCID=710b1308
DTITLE=Morly Grey - The Only Truth
DYEAR=1900
DGENRE=Psychedelic Rock
TTITLE0=Peace Officer
TTITLE1=You Came to Me
TTITLE2=Who Can I Say You Are?
TTITLE3=I'm Afraid
TTITLE4=Our Time
TTITLE5=After Me Again
TTITLE6=A Feeling for You
TTITLE7=The Only Truth
EXTD=
EXTT0=
EXTT1=
EXTT2=
EXTT3=
EXTT4=
EXTT5=
EXTT6=
EXTT7=
PLAYORDER=
